<svg width="24" height="24" viewBox="0 0 24 24" fill="none" xmlns="http://www.w3.org/2000/svg">
<path d="M19 4H18V16.4959H19C19.5304 16.4959 20.0391 16.2933 20.4142 15.9328C20.7893 15.5723 21 15.0833 21 14.5734V5.92244C21 5.41258 20.7893 4.9236 20.4142 4.56307C20.0391 4.20254 19.5304 4 19 4ZM3 16.4959H10L8.878 19.7333C8.77789 20.0222 8.75061 20.3298 8.79843 20.6309C8.84624 20.9319 8.96778 21.2177 9.15302 21.4648C9.33827 21.7119 9.58192 21.9131 9.86392 22.0519C10.1459 22.1907 10.4582 22.2631 10.775 22.2632H11L16 17.0361V4H5L1.063 12.3136L1 12.5952V14.5734C1 15.0833 1.21071 15.5723 1.58579 15.9328C1.96086 16.2933 2.46957 16.4959 3 16.4959Z" fill="#C1C1C1"/>
</svg>
