<svg width="24" height="24" viewBox="0 0 24 24" fill="none" xmlns="http://www.w3.org/2000/svg">
<path d="M4 20.2632H5V7.76732H4C3.46957 7.76732 2.96086 7.96986 2.58579 8.33039C2.21071 8.69092 2 9.1799 2 9.68976V18.3407C2 18.8506 2.21071 19.3396 2.58579 19.7001C2.96086 20.0606 3.46957 20.2632 4 20.2632ZM20 7.76732H13L14.122 4.52993C14.2221 4.241 14.2494 3.93335 14.2016 3.6323C14.1538 3.33126 14.0322 3.04544 13.847 2.79838C13.6617 2.55133 13.4181 2.35012 13.1361 2.21131C12.8541 2.0725 12.5418 2.00008 12.225 2H12L7 7.22712V20.2632H18L21.912 12.0005L22 11.6122V9.68976C22 9.1799 21.7893 8.69092 21.4142 8.33039C21.0391 7.96986 20.5304 7.76732 20 7.76732Z" fill="#C1C1C1"/>
</svg>
